# xmcd
#
# Track frame offsets:
#	150
#	16884
#	36605
#	57752
#	73748
#	87120
#	107814
#	131985
#	155119
#	167773
#	184717
#
# Disc length: 2743 seconds
#
# Revision: 1
# Processed by: cddbd v1.5.1PL0 Copyright (c) Steve Scherf et al.
# Submitted via: audiograbber 1.83.01
#
DISCID=9a0ab50b
DTITLE=Harry Belafonte - Belafonte Sings The Blues
DYEAR=1963
DGENRE=Blues
TTITLE0=A Fool for You
TTITLE1=Losing Hand
TTITLE2=One for My Baby
TTITLE3=In the Evenin' Mama
TTITLE4=Hallelujah I Love Her So
TTITLE5=The Way That I Feel
TTITLE6=Cotton Fields
TTITLE7=God Bless' the Child
TTITLE8=May Ann
TTITLE9=Sinner's Prayer
TTITLE10=Fare Thee Well
EXTD=
EXTT0=
EXTT1=
EXTT2=
EXTT3=
EXTT4=
EXTT5=
EXTT6=
EXTT7=
EXTT8=
EXTT9=
EXTT10=
PLAYORDER=
